<?xml version="1.0" standalone="no"?>
<!DOCTYPE svg PUBLIC "-//W3C//DTD SVG 20010904//EN"
 "http://www.w3.org/TR/2001/REC-SVG-20010904/DTD/svg10.dtd">
<svg version="1.0" xmlns="http://www.w3.org/2000/svg"
 width="1048.000000pt" height="275.000000pt" viewBox="0 0 1048.000000 275.000000"
 preserveAspectRatio="xMidYMid meet">

<g transform="translate(0.000000,275.000000) scale(0.100000,-0.100000)"
fill="#000000" stroke="none">
<path d="M1243 2570 c-74 -19 -109 -35 -177 -78 -41 -25 -37 -42 10 -42 12 0
56 -24 97 -54 l75 -54 59 14 c75 18 115 17 188 -1 120 -32 207 -91 247 -170
25 -48 25 -48 14 -560 -8 -397 -8 -400 13 -457 30 -77 63 -98 160 -98 50 0 71
4 71 13 -1 6 3 136 7 287 12 451 9 726 -9 792 -82 296 -441 490 -755 408z"/>
<path d="M985 2411 c-44 -19 -126 -115 -164 -189 -26 -51 -51 -153 -51 -209
l0 -43 125 0 125 0 0 48 c0 54 14 109 35 136 14 18 18 16 87 -40 40 -32 101
-83 136 -113 59 -51 68 -55 122 -59 64 -5 101 11 149 62 21 22 22 28 10 42
-41 50 -424 349 -473 369 -45 19 -52 19 -101 -4z"/>
<path d="M2047 2083 c-4 -3 -7 -51 -7 -105 l0 -98 55 -26 c30 -15 55 -30 55
-35 0 -5 -27 -43 -60 -85 -59 -74 -60 -77 -60 -137 0 -83 16 -174 35 -204 l16
-24 77 98 c130 165 211 278 227 316 56 135 -39 228 -311 302 -11 3 -23 2 -27
-2z"/>
<path d="M1590 1983 c-8 -3 -35 -20 -60 -37 -39 -27 -53 -31 -110 -30 -36 0
-96 6 -135 12 -104 17 -567 15 -632 -2 -149 -40 -282 -152 -351 -296 -22 -47
-45 -112 -51 -144 -32 -177 12 -388 106 -513 30 -41 39 -41 47 -3 6 31 51 105
89 148 20 22 20 23 3 79 -30 94 -33 208 -7 291 28 94 98 173 191 215 l65 30
150 -7 c83 -3 238 -11 345 -16 259 -14 374 -14 402 1 13 6 40 27 61 47 l37 36
0 92 c0 75 -3 93 -16 98 -19 7 -113 7 -134 -1z"/>
<path d="M2426 1809 c-3 -18 -29 -66 -57 -108 l-51 -76 17 -46 c23 -66 30
-175 15 -254 -24 -126 -131 -244 -243 -267 -42 -9 -156 -9 -472 0 -459 13
-457 13 -508 -47 -32 -38 -39 -73 -35 -171 l3 -75 65 -7 c64 -7 65 -7 88 23
36 45 77 62 147 60 292 -7 692 -7 746 1 199 28 373 204 433 435 43 166 -5 419
-101 533 -31 38 -39 38 -47 -1z"/>
<path d="M3555 1763 c-76 -27 -136 -66 -187 -121 -176 -188 -150 -487 57 -644
75 -57 144 -80 255 -86 105 -4 183 15 262 64 100 64 178 182 198 304 31 185
-73 381 -247 463 -62 29 -78 32 -178 35 -86 2 -121 -2 -160 -15z m281 -74 c44
-17 75 -38 120 -84 79 -81 106 -146 107 -262 1 -74 -2 -87 -36 -156 -60 -122
-160 -194 -286 -207 -167 -17 -303 59 -375 210 -28 58 -31 75 -31 155 0 80 3
97 31 155 87 183 278 260 470 189z"/>
<path d="M7527 1763 c-4 -3 -7 -192 -7 -420 l0 -413 185 0 185 0 0 35 0 35
-145 0 -145 0 0 385 0 385 -33 0 c-19 0 -37 -3 -40 -7z"/>
<path d="M832 1524 c-2 -99 -7 -305 -12 -459 -13 -394 -1 -490 79 -613 113
-172 277 -266 491 -279 107 -6 183 5 271 41 60 24 129 65 129 77 0 4 -17 9
-39 13 -24 4 -62 24 -105 58 l-67 51 -47 -11 c-93 -22 -110 -23 -180 -8 -127
26 -209 78 -260 166 -26 44 -27 48 -27 220 0 96 4 313 8 481 9 344 8 354 -57
404 -30 23 -50 29 -109 33 l-72 4 -3 -178z"/>
<path d="M6282 1674 c-12 -8 -22 -25 -22 -38 0 -26 28 -56 53 -56 21 0 57 35
57 55 0 18 -35 55 -53 55 -7 0 -23 -7 -35 -16z"/>
<path d="M4860 1541 l0 -100 -47 -3 c-44 -3 -48 -5 -51 -30 -3 -26 -1 -27 45
-30 l48 -3 3 -222 2 -223 35 0 35 0 0 225 0 225 51 0 c49 0 50 1 47 28 -3 25
-7 27 -50 30 l-48 3 0 100 0 99 -35 0 -35 0 0 -99z"/>
<path d="M4446 1440 c-188 -57 -240 -335 -88 -472 22 -20 60 -42 84 -49 59
-17 156 -15 217 6 50 16 51 18 51 55 l0 39 -56 -26 c-46 -21 -67 -25 -123 -21
-113 6 -178 67 -188 175 -9 105 28 183 108 223 51 26 139 26 198 0 24 -11 45
-20 48 -20 2 0 3 17 1 38 -3 32 -7 38 -38 49 -40 14 -171 15 -214 3z"/>
<path d="M5224 1431 c-105 -48 -163 -212 -124 -353 28 -98 120 -168 222 -168
71 0 115 17 150 59 15 17 29 31 32 31 3 0 6 -16 6 -35 0 -33 2 -35 35 -35 l35
0 -2 253 -3 252 -30 0 c-27 0 -30 -4 -35 -38 l-5 -39 -30 32 c-16 18 -44 39
-62 46 -46 20 -140 17 -189 -5z m179 -55 c74 -30 114 -116 103 -220 -13 -122
-87 -193 -191 -182 -60 7 -92 29 -123 84 -33 59 -33 172 0 239 39 78 131 113
211 79z"/>
<path d="M6686 1440 c-67 -20 -137 -90 -167 -165 -6 -16 -12 -59 -12 -95 -1
-112 55 -199 161 -248 93 -42 222 -21 300 51 73 67 103 199 67 294 -41 106
-140 173 -255 172 -36 0 -78 -5 -94 -9z m147 -61 c146 -40 193 -235 83 -345
-68 -68 -152 -79 -238 -32 -114 64 -133 235 -36 329 57 55 115 70 191 48z"/>
<path d="M8117 1436 c-220 -79 -237 -390 -26 -495 142 -71 300 -18 370 125 27
55 31 71 27 126 -2 38 -13 82 -27 111 -27 56 -103 121 -159 137 -51 14 -139
12 -185 -4z m155 -56 c159 -44 189 -278 50 -375 -37 -26 -53 -30 -107 -30 -54
0 -69 4 -106 30 -58 41 -89 102 -89 174 1 145 117 238 252 201z"/>
<path d="M8795 1431 c-17 -10 -43 -32 -57 -50 -15 -17 -29 -31 -32 -31 -3 0
-6 20 -6 45 0 43 -1 45 -30 45 l-30 0 0 -385 0 -385 30 0 30 0 0 170 c0 94 2
170 5 170 3 0 20 -16 38 -36 17 -21 46 -43 64 -50 38 -17 113 -18 165 -4 47
13 120 93 137 149 20 68 16 182 -10 240 -22 53 -82 115 -125 131 -44 17 -146
12 -179 -9z m148 -55 c74 -31 116 -129 103 -239 -13 -101 -74 -162 -159 -161
-66 1 -110 24 -145 76 -22 34 -28 55 -31 119 -2 65 1 86 19 124 40 83 128 117
213 81z"/>
<path d="M9374 1431 c-123 -56 -179 -243 -115 -385 22 -50 86 -109 136 -126
52 -17 161 -9 210 16 37 19 105 93 105 115 0 4 -13 15 -29 23 -28 15 -29 15
-56 -25 -44 -68 -135 -96 -208 -65 -59 24 -107 102 -107 174 l0 22 201 0 202
0 -6 60 c-4 33 -13 73 -22 89 -21 41 -74 91 -112 107 -47 20 -150 17 -199 -5z
m185 -70 c32 -22 57 -59 65 -93 l6 -28 -160 0 -161 0 7 23 c11 35 31 72 48 86
50 41 146 47 195 12z"/>
<path d="M5700 1433 c0 -19 225 -532 231 -525 14 16 226 521 221 526 -10 11
-60 6 -69 -6 -5 -7 -40 -89 -77 -183 -38 -93 -71 -173 -75 -177 -4 -4 -41 77
-83 180 l-75 187 -37 3 c-20 2 -36 0 -36 -5z"/>
<path d="M6280 1186 l0 -256 35 0 35 0 -2 253 -3 252 -32 3 -33 3 0 -255z"/>
<path d="M9800 1405 l0 -34 130 -3 130 -3 -135 -212 c-74 -117 -135 -215 -135
-218 0 -3 90 -5 200 -5 l200 0 0 30 0 30 -140 0 c-77 0 -140 2 -140 4 0 3 59
98 131 211 71 114 133 213 136 221 4 12 -24 14 -186 14 l-191 0 0 -35z"/>
<path d="M709 1348 c-90 -108 -253 -326 -265 -355 -19 -45 -17 -113 4 -144 40
-61 133 -115 253 -149 41 -11 77 -20 82 -20 4 0 6 48 5 106 -2 83 -6 108 -18
114 -51 24 -75 40 -78 52 -1 7 22 44 50 83 l53 70 -1 115 c0 93 -4 120 -18
143 -10 15 -21 27 -25 27 -4 0 -23 -19 -42 -42z"/>
<path d="M1323 800 c-45 -20 -87 -81 -67 -99 62 -56 466 -356 488 -362 72 -21
159 37 240 160 24 36 51 88 60 115 20 59 30 156 18 173 -5 9 -50 15 -130 20
l-122 6 0 -62 c0 -62 -32 -161 -51 -161 -5 0 -77 52 -161 115 -168 128 -188
135 -275 95z"/>
</g>
</svg>
